<?xml version="1.0" standalone="no"?>
<!DOCTYPE svg PUBLIC "-//W3C//DTD SVG 20010904//EN"
 "http://www.w3.org/TR/2001/REC-SVG-20010904/DTD/svg10.dtd">
<svg version="1.0" xmlns="http://www.w3.org/2000/svg"
 width="200.000000pt" height="200.000000pt" viewBox="0 0 200.000000 200.000000"
 preserveAspectRatio="xMidYMid meet">

<g transform="translate(0.000000,200.000000) scale(0.100000,-0.100000)"
fill="#000000" stroke="none">
<path d="M954 1748 c-56 -76 -104 -173 -104 -211 0 -30 22 -80 48 -109 9 -12
11 -18 4 -18 -7 0 -21 -9 -32 -20 -18 -18 -20 -33 -20 -194 l0 -174 -192 -4
c-183 -3 -195 -4 -231 -27 -21 -13 -50 -42 -65 -64 l-27 -40 -3 -234 -3 -233
-34 0 c-47 0 -52 -16 -18 -63 37 -54 118 -102 204 -121 100 -23 958 -23 1058
0 86 19 167 67 204 121 34 47 29 63 -18 63 l-34 0 -3 233 c-3 224 -4 233 -27
270 -13 21 -42 50 -64 65 -40 27 -43 27 -234 30 l-193 4 0 174 c0 161 -2 176
-20 194 -11 11 -25 20 -32 20 -7 0 -5 6 4 18 26 29 48 79 48 109 0 15 -13 55
-29 88 -32 67 -115 185 -131 185 -6 0 -31 -28 -56 -62z m104 -60 c78 -120 88
-180 38 -227 l-23 -22 4 25 c5 24 -51 146 -67 146 -16 0 -72 -122 -67 -146 l4
-25 -23 22 c-32 30 -39 77 -19 125 19 47 94 164 105 164 4 0 26 -28 48 -62z
m-18 -160 c11 -24 20 -49 20 -57 0 -20 -30 -51 -48 -51 -21 0 -52 30 -52 49 1
25 38 101 50 101 6 0 20 -19 30 -42z m78 -160 c8 -8 12 -63 12 -180 l0 -168
-120 0 -120 0 0 168 c0 117 4 172 12 180 8 8 47 12 108 12 61 0 100 -4 108
-12z m458 -414 c51 -37 68 -70 72 -137 3 -54 0 -67 -22 -99 -18 -28 -21 -38
-11 -38 8 0 19 8 24 17 7 13 10 -24 11 -129 l0 -148 -640 0 -640 0 0 145 c0
144 0 145 19 126 67 -67 224 -80 295 -26 32 25 12 27 -39 4 -87 -39 -216 -11
-256 55 -34 56 -22 154 24 205 47 51 44 51 609 48 514 -2 527 -2 554 -23z
m100 -609 c-21 -19 -64 -45 -95 -57 -56 -23 -59 -23 -571 -23 -512 0 -515 0
-571 23 -31 12 -74 38 -95 57 l-39 34 705 0 705 0 -39 -34z"/>
<path d="M732 739 c-15 -23 -8 -39 10 -21 8 8 20 3 47 -18 71 -58 194 -82 303
-60 72 14 112 32 150 68 l28 25 21 -28 c21 -26 109 -75 137 -75 28 0 9 16 -37
33 -33 11 -62 31 -85 59 l-36 42 -33 -32 c-58 -56 -119 -77 -227 -76 -108 0
-182 24 -225 75 -28 35 -36 36 -53 8z"/>
<path d="M1503 653 c-13 -2 -23 -9 -23 -15 0 -12 70 -2 85 13 9 9 -19 10 -62
2z"/>
</g>
</svg>
